<?xml version="1.0" standalone="no"?>
<!DOCTYPE svg PUBLIC "-//W3C//DTD SVG 20010904//EN"
 "http://www.w3.org/TR/2001/REC-SVG-20010904/DTD/svg10.dtd">
<svg version="1.0" xmlns="http://www.w3.org/2000/svg"
 width="3000.000000pt" height="1713.000000pt" viewBox="0 0 3000.000000 1713.000000"
 preserveAspectRatio="xMidYMid meet">

<g transform="translate(0.000000,1713.000000) scale(0.100000,-0.100000)"
fill="#000000" stroke="none">
<path d="M7745 17123 c-1937 -77 -3508 -682 -4875 -1877 -270 -237 -670 -654
-931 -972 -1287 -1567 -1939 -3477 -1939 -5679 0 -1784 464 -3375 1384 -4749
771 -1152 1878 -2172 3060 -2820 1015 -557 2135 -889 3346 -990 937 -79 2273
-23 3319 140 884 137 1701 367 2381 669 173 77 505 249 668 345 l152 90 0
3005 0 3005 -650 0 -650 0 0 -2689 0 -2689 -137 -52 c-945 -361 -2066 -569
-3393 -629 -601 -28 -1110 -23 -1521 14 -1714 156 -3171 844 -4410 2084 -1325
1327 -2030 2901 -2140 4775 -13 230 -7 991 10 1186 92 1045 287 1840 657 2668
446 999 1183 1957 2029 2638 1151 926 2600 1373 4265 1315 825 -29 1517 -121
2255 -301 2420 -588 4615 -2060 6182 -4145 520 -693 946 -1392 1392 -2285 283
-568 450 -942 716 -1605 84 -209 623 -1480 1198 -2825 575 -1345 1253 -2932
1508 -3528 l462 -1082 390 2 390 3 512 1195 c1095 2558 2026 4738 4645 10875
983 2305 1831 4290 1883 4413 l95 222 -696 -2 -696 -3 -2788 -6620 c-1533
-3641 -2832 -6732 -2887 -6870 -142 -357 -211 -542 -317 -859 -51 -153 -94
-280 -97 -282 -7 -7 -2048 5058 -2126 5276 -456 1287 -1140 2631 -1956 3845
-603 896 -1213 1645 -1904 2335 -380 380 -672 639 -1056 940 -1877 1467 -4070
2308 -6480 2485 -412 30 -921 41 -1250 28z"/>
</g>
</svg>
